<svg width="300" height="300" viewBox="0 0 300 300" fill="none" xmlns="http://www.w3.org/2000/svg">
<rect width="300" height="300" fill="black"/>
<rect width="10" height="10" transform="matrix(4.37114e-08 1 1 -4.37114e-08 20 40)" fill="white"/>
<rect x="40" y="20" width="10" height="10" fill="white"/>
<rect width="10" height="10" transform="matrix(4.37114e-08 1 1 -4.37114e-08 30 40)" fill="white"/>
<rect x="40" y="30" width="10" height="10" fill="white"/>
<rect width="10" height="10" transform="matrix(4.37114e-08 1 1 -4.37114e-08 20 50)" fill="white"/>
<rect x="50" y="20" width="10" height="10" fill="white"/>
<rect width="10" height="10" transform="matrix(4.37114e-08 1 1 -4.37114e-08 30 50)" fill="white"/>
<rect x="50" y="30" width="10" height="10" fill="white"/>
<rect width="10" height="10" transform="matrix(4.37114e-08 1 1 -4.37114e-08 20 60)" fill="white"/>
<rect x="60" y="20" width="10" height="10" fill="white"/>
<rect width="10" height="10" transform="matrix(4.37114e-08 1 1 -4.37114e-08 20 70)" fill="white"/>
<rect x="70" y="20" width="10" height="10" fill="white"/>
<rect width="10" height="10" transform="matrix(4.37114e-08 1 1 -4.37114e-08 40 60)" fill="white"/>
<rect x="60" y="40" width="10" height="10" fill="white"/>
<rect x="60" y="60" width="10" height="10" fill="white"/>
<rect x="80" y="80" width="10" height="10" fill="white"/>
<rect x="100" y="100" width="10" height="10" fill="white"/>
<rect x="120" y="120" width="10" height="10" fill="white"/>
<rect x="130" y="140" width="10" height="10" fill="white"/>
<rect x="150" y="120" width="10" height="10" fill="white"/>
<rect x="120" y="160" width="10" height="10" fill="white"/>
<rect x="160" y="120" width="10" height="10" fill="white"/>
<rect x="140" y="160" width="10" height="10" fill="white"/>
<rect x="140" y="170" width="10" height="10" fill="white"/>
<rect x="140" y="180" width="10" height="10" fill="white"/>
<rect x="150" y="160" width="10" height="10" fill="white"/>
<rect x="150" y="170" width="10" height="10" fill="white"/>
<rect x="150" y="180" width="10" height="10" fill="white"/>
<rect x="150" y="190" width="10" height="10" fill="white"/>
<rect x="160" y="180" width="10" height="10" fill="white"/>
<rect x="100" y="140" width="10" height="10" fill="white"/>
<rect width="10" height="10" transform="matrix(-4.37114e-08 1 1 4.37114e-08 140 100)" fill="white"/>
<rect x="80" y="160" width="10" height="10" fill="white"/>
<rect width="10" height="10" transform="matrix(-4.37114e-08 1 1 4.37114e-08 160 80)" fill="white"/>
<rect x="60" y="180" width="10" height="10" fill="white"/>
<rect width="10" height="10" transform="matrix(-4.37114e-08 1 1 4.37114e-08 180 60)" fill="white"/>
<rect width="10" height="10" transform="matrix(4.37114e-08 1 1 -4.37114e-08 40 70)" fill="white"/>
<rect x="70" y="40" width="10" height="10" fill="white"/>
<rect x="70" y="60" width="10" height="10" fill="white"/>
<rect x="90" y="80" width="10" height="10" fill="white"/>
<rect x="110" y="100" width="10" height="10" fill="white"/>
<rect x="130" y="120" width="10" height="10" fill="white"/>
<rect x="130" y="160" width="10" height="10" fill="white"/>
<rect x="180" y="160" width="10" height="10" fill="white"/>
<rect x="110" y="140" width="10" height="10" fill="white"/>
<rect width="10" height="10" transform="matrix(-4.37114e-08 1 1 4.37114e-08 140 110)" fill="white"/>
<rect x="90" y="160" width="10" height="10" fill="white"/>
<rect width="10" height="10" transform="matrix(-4.37114e-08 1 1 4.37114e-08 160 90)" fill="white"/>
<rect x="70" y="180" width="10" height="10" fill="white"/>
<rect width="10" height="10" transform="matrix(-4.37114e-08 1 1 4.37114e-08 180 70)" fill="white"/>
<rect width="10" height="10" transform="matrix(4.37114e-08 1 1 -4.37114e-08 30 60)" fill="white"/>
<rect x="60" y="30" width="10" height="10" fill="white"/>
<rect width="10" height="10" transform="matrix(4.37114e-08 1 1 -4.37114e-08 30 70)" fill="white"/>
<rect x="70" y="30" width="10" height="10" fill="white"/>
<rect width="10" height="10" transform="matrix(4.37114e-08 1 1 -4.37114e-08 50 60)" fill="white"/>
<rect x="60" y="50" width="10" height="10" fill="white"/>
<rect x="60" y="70" width="10" height="10" fill="white"/>
<rect x="80" y="90" width="10" height="10" fill="white"/>
<rect x="100" y="110" width="10" height="10" fill="white"/>
<rect x="120" y="130" width="10" height="10" fill="white"/>
<rect x="130" y="150" width="10" height="10" fill="white"/>
<rect x="150" y="130" width="10" height="10" fill="white"/>
<rect x="120" y="150" width="10" height="10" fill="white"/>
<rect x="140" y="130" width="10" height="10" fill="white"/>
<rect x="160" y="130" width="10" height="10" fill="white"/>
<rect x="160" y="140" width="10" height="10" fill="white"/>
<rect x="170" y="140" width="10" height="10" fill="white"/>
<rect x="180" y="140" width="10" height="10" fill="white"/>
<rect x="170" y="150" width="10" height="10" fill="white"/>
<rect x="160" y="150" width="10" height="10" fill="white"/>
<rect x="180" y="150" width="10" height="10" fill="white"/>
<rect x="100" y="150" width="10" height="10" fill="white"/>
<rect width="10" height="10" transform="matrix(-4.37114e-08 1 1 4.37114e-08 150 100)" fill="white"/>
<rect x="80" y="170" width="10" height="10" fill="white"/>
<rect width="10" height="10" transform="matrix(-4.37114e-08 1 1 4.37114e-08 170 80)" fill="white"/>
<rect x="60" y="190" width="10" height="10" fill="white"/>
<rect width="10" height="10" transform="matrix(-4.37114e-08 1 1 4.37114e-08 190 60)" fill="white"/>
<rect x="60" y="200" width="10" height="10" fill="white"/>
<rect width="10" height="10" transform="matrix(-4.37114e-08 1 1 4.37114e-08 200 60)" fill="white"/>
<rect width="10" height="10" transform="matrix(4.37114e-08 1 1 -4.37114e-08 50 70)" fill="white"/>
<rect x="70" y="50" width="10" height="10" fill="white"/>
<rect x="70" y="70" width="10" height="10" fill="white"/>
<rect x="90" y="90" width="10" height="10" fill="white"/>
<rect x="110" y="110" width="10" height="10" fill="white"/>
<rect x="130" y="130" width="10" height="10" fill="white"/>
<rect x="130" y="170" width="10" height="10" fill="white"/>
<rect x="170" y="130" width="10" height="10" fill="white"/>
<rect x="110" y="150" width="10" height="10" fill="white"/>
<rect width="10" height="10" transform="matrix(-4.37114e-08 1 1 4.37114e-08 150 110)" fill="white"/>
<rect x="90" y="170" width="10" height="10" fill="white"/>
<rect width="10" height="10" transform="matrix(-4.37114e-08 1 1 4.37114e-08 170 90)" fill="white"/>
<rect x="70" y="190" width="10" height="10" fill="white"/>
<rect width="10" height="10" transform="matrix(-4.37114e-08 1 1 4.37114e-08 190 70)" fill="white"/>
<rect x="70" y="200" width="10" height="10" fill="white"/>
<rect width="10" height="10" transform="matrix(-4.37114e-08 1 1 4.37114e-08 200 70)" fill="white"/>
<rect x="170" y="180" width="10" height="10" fill="white"/>
<rect x="190" y="160" width="10" height="10" fill="white"/>
<rect x="160" y="200" width="10" height="10" fill="white"/>
<rect x="200" y="160" width="10" height="10" fill="white"/>
<rect x="180" y="200" width="10" height="10" fill="white"/>
<rect x="180" y="210" width="10" height="10" fill="white"/>
<rect x="180" y="220" width="10" height="10" fill="white"/>
<rect x="190" y="220" width="10" height="10" fill="white"/>
<rect x="190" y="200" width="10" height="10" fill="white"/>
<rect x="190" y="210" width="10" height="10" fill="white"/>
<rect x="170" y="200" width="10" height="10" fill="white"/>
<rect x="170" y="190" width="10" height="10" fill="white"/>
<rect x="190" y="170" width="10" height="10" fill="white"/>
<rect x="160" y="190" width="10" height="10" fill="white"/>
<rect x="180" y="170" width="10" height="10" fill="white"/>
<rect x="200" y="170" width="10" height="10" fill="white"/>
<rect x="200" y="180" width="10" height="10" fill="white"/>
<rect x="210" y="180" width="10" height="10" fill="white"/>
<rect x="220" y="180" width="10" height="10" fill="white"/>
<rect x="210" y="190" width="10" height="10" fill="white"/>
<rect x="200" y="190" width="10" height="10" fill="white"/>
<rect x="220" y="190" width="10" height="10" fill="white"/>
<rect x="220" y="200" width="10" height="10" fill="white"/>
<rect x="170" y="210" width="10" height="10" fill="white"/>
<rect x="210" y="170" width="10" height="10" fill="white"/>
<rect x="210" y="220" width="10" height="10" fill="white"/>
<rect x="230" y="200" width="10" height="10" fill="white"/>
<rect x="230" y="190" width="10" height="10" fill="white"/>
<rect x="200" y="240" width="10" height="10" fill="white"/>
<rect x="240" y="200" width="10" height="10" fill="white"/>
<rect x="220" y="240" width="10" height="10" fill="white"/>
<rect x="220" y="250" width="10" height="10" fill="white"/>
<rect x="220" y="260" width="10" height="10" fill="white"/>
<rect x="230" y="260" width="10" height="10" fill="white"/>
<rect x="230" y="270" width="10" height="10" fill="white"/>
<rect x="240" y="260" width="10" height="10" fill="white"/>
<rect x="240" y="270" width="10" height="10" fill="white"/>
<rect x="250" y="260" width="10" height="10" fill="white"/>
<rect x="250" y="270" width="10" height="10" fill="white"/>
<rect x="260" y="260" width="10" height="10" fill="white"/>
<rect x="260" y="270" width="10" height="10" fill="white"/>
<rect x="270" y="270" width="10" height="10" fill="white"/>
<rect x="270" y="260" width="10" height="10" fill="white"/>
<rect x="230" y="240" width="10" height="10" fill="white"/>
<rect x="230" y="250" width="10" height="10" fill="white"/>
<rect x="210" y="240" width="10" height="10" fill="white"/>
<rect x="210" y="230" width="10" height="10" fill="white"/>
<rect x="230" y="210" width="10" height="10" fill="white"/>
<rect x="200" y="230" width="10" height="10" fill="white"/>
<rect x="190" y="230" width="10" height="10" fill="white"/>
<rect x="200" y="220" width="10" height="10" fill="white"/>
<rect x="220" y="210" width="10" height="10" fill="white"/>
<rect x="240" y="210" width="10" height="10" fill="white"/>
<rect x="240" y="220" width="10" height="10" fill="white"/>
<rect x="250" y="220" width="10" height="10" fill="white"/>
<rect x="260" y="220" width="10" height="10" fill="white"/>
<rect x="250" y="230" width="10" height="10" fill="white"/>
<rect x="240" y="230" width="10" height="10" fill="white"/>
<rect x="260" y="230" width="10" height="10" fill="white"/>
<rect x="270" y="230" width="10" height="10" fill="white"/>
<rect x="260" y="240" width="10" height="10" fill="white"/>
<rect x="270" y="240" width="10" height="10" fill="white"/>
<rect x="260" y="250" width="10" height="10" fill="white"/>
<rect x="270" y="250" width="10" height="10" fill="white"/>
<rect x="210" y="250" width="10" height="10" fill="white"/>
<rect x="250" y="210" width="10" height="10" fill="white"/>
</svg>
